<?xml version="1.0" standalone="no"?>
<!DOCTYPE svg PUBLIC "-//W3C//DTD SVG 20010904//EN"
 "http://www.w3.org/TR/2001/REC-SVG-20010904/DTD/svg10.dtd">
<svg version="1.0" xmlns="http://www.w3.org/2000/svg"
 width="260.000000pt" height="260.000000pt" viewBox="0 0 260.000000 260.000000"
 preserveAspectRatio="xMidYMid meet">
<metadata>
Created by potrace 1.11, written by Peter Selinger 2001-2013
</metadata>
<g transform="translate(0.000000,260.000000) scale(0.100000,-0.100000)"
fill="#000000" stroke="none">
<path d="M1145 2555 l-25 -24 0 -233 c-1 -157 -4 -228 -10 -216 -12 20 -50 33
-155 53 -44 8 -91 17 -105 20 -53 11 -246 48 -260 50 -25 4 -68 -15 -75 -33
-4 -9 -9 -28 -11 -42 -3 -14 -9 -41 -14 -60 -5 -19 -11 -51 -14 -70 -3 -19
-21 -115 -41 -213 -19 -98 -37 -191 -40 -205 -2 -15 -20 -107 -40 -205 -19
-98 -37 -193 -40 -210 -3 -18 -15 -77 -26 -132 -10 -55 -21 -109 -23 -120 -49
-257 -119 -610 -131 -665 -10 -45 -15 -103 -10 -123 7 -25 39 -45 85 -54 14
-2 93 -18 175 -34 183 -37 315 -48 332 -28 12 15 29 94 83 379 17 91 33 174
36 185 7 33 13 66 29 150 8 44 19 100 25 125 12 57 57 293 65 340 3 19 8 42
10 50 2 8 6 26 9 40 4 24 35 188 41 220 2 8 23 121 48 250 25 129 48 244 50
255 3 11 5 -425 6 -968 l1 -988 25 -24 24 -25 261 0 261 0 24 25 25 24 0 1241
0 1241 -25 24 -24 25 -261 0 -261 0 -24 -25z"/>
<path d="M1877 1799 l-27 -20 0 -867 c0 -772 2 -870 15 -890 16 -22 18 -22
285 -22 267 0 269 0 284 22 14 20 16 121 16 886 l0 863 -25 24 -24 25 -249 0
c-236 0 -251 -1 -275 -21z"/>
</g>
</svg>
